<svg width="160" height="210" xmlns="http://www.w3.org/2000/svg"><g fill-rule="nonzero" fill="none"><path d="M145 210H15c-8.3 0-15-6.7-15-15V15C0 6.7 6.7 0 15 0h95l50 50v145c0 8.3-6.7 15-15 15Z" fill="#4074D1"/><path fill="#8FB0EA" d="M160 50h-50V0z"/><path fill="#40639E" d="m110 50 50 50V50z"/><path d="M69.651 160.063v-5.417H64.2c-3.474 0-5.766-.503-6.874-1.509-1.109-1.006-1.663-2.217-1.663-3.634 0-1.052.228-2.674.686-4.869l.891-4.011c.48-2.149.72-3.886.72-5.212 0-1.508-.257-2.845-.771-4.011-.515-1.166-1.28-2.297-2.298-3.394-1.017-1.097-2.611-2.217-4.782-3.36 2.171-1.143 3.765-2.269 4.782-3.377 1.018-1.109 1.783-2.24 2.298-3.395.514-1.154.771-2.485.771-3.994 0-1.326-.24-3.074-.72-5.246l-.891-4.011c-.458-2.172-.686-3.772-.686-4.8 0-1.463.56-2.692 1.68-3.686 1.12-.994 3.406-1.491 6.857-1.491h5.451V89.16h-5.52c-6.422 0-10.56 1.04-12.411 3.12-1.851 2.08-2.777 4.411-2.777 6.994 0 1.372.171 2.869.514 4.492l.652 2.811.582 3.052.446 1.817c.16.8.24 1.623.24 2.468 0 2.286-.743 4.189-2.228 5.709-1.486 1.52-4.058 2.28-7.715 2.28H38.28v5.451h3.154c3.703 0 6.286.772 7.749 2.315 1.463 1.542 2.194 3.411 2.194 5.605 0 .8-.08 1.635-.24 2.503l-.446 1.886-.582 3.051-.652 2.812c-.343 1.6-.514 3.085-.514 4.457 0 2.606.926 4.937 2.777 6.994 1.851 2.057 5.989 3.086 12.411 3.086h5.52Zm27.246 0c6.423 0 10.566-1.023 12.429-3.069 1.863-2.045 2.794-4.371 2.794-6.977 0-1.371-.183-2.868-.549-4.491l-.651-2.812-.583-3.051-.411-1.886c-.183-.8-.275-1.6-.275-2.4 0-2.286.749-4.194 2.246-5.726 1.497-1.531 4.074-2.297 7.732-2.297h3.12v-5.451h-3.12c-3.703 0-6.292-.772-7.766-2.314-1.474-1.543-2.212-3.4-2.212-5.572 0-.823.092-1.68.275-2.571l.411-1.817.583-3.052.651-2.811c.366-1.6.549-3.097.549-4.492 0-2.583-.931-4.914-2.794-6.994s-6.006-3.12-12.429-3.12h-5.52v5.486h5.452c3.474 0 5.765.497 6.874 1.491 1.108.994 1.663 2.212 1.663 3.652 0 1.051-.229 2.662-.686 4.834l-.891 4.011c-.435 2.172-.652 3.92-.652 5.246 0 1.509.246 2.84.737 3.994.492 1.155 1.246 2.286 2.263 3.395 1.017 1.108 2.612 2.234 4.783 3.377-2.171 1.143-3.766 2.263-4.783 3.36-1.017 1.097-1.771 2.228-2.263 3.394-.491 1.166-.737 2.503-.737 4.011 0 1.326.217 3.063.652 5.212l.891 4.011c.457 2.195.686 3.806.686 4.835 0 1.44-.555 2.662-1.663 3.668-1.109 1.006-3.4 1.509-6.874 1.509h-5.452v5.417h5.52Z" fill="#FFF"/></g></svg>
