<svg width="160" height="210" xmlns="http://www.w3.org/2000/svg"><defs><filter id="a"><feColorMatrix in="SourceGraphic" values="0 0 0 0 1.000000 0 0 0 0 1.000000 0 0 0 0 1.000000 0 0 0 1.000000 0"/></filter></defs><g fill="none" fill-rule="evenodd"><g fill-rule="nonzero"><path d="M145 210H15c-8.3 0-15-6.7-15-15V15C0 6.7 6.7 0 15 0h95l50 50v145c0 8.3-6.7 15-15 15Z" fill="#4d8afa"/><path fill="#95b6ff" d="M160 50h-50V0z"/><path fill="#3e71e4" d="m110 50 50 50V50z"/></g><g filter="url(#a)"><g fill="#000" fill-rule="nonzero"><path d="M127 171H33v-18.857l27.118-33.049 39.711 33.049L127 140.289zM131 110.5c0 8.009-6.491 14.5-14.5 14.5s-14.5-6.491-14.5-14.5S108.491 96 116.5 96s14.5 6.491 14.5 14.5Z"/></g></g></g></svg>
