<svg width="160" height="210" xmlns="http://www.w3.org/2000/svg"><defs><filter id="a"><feColorMatrix in="SourceGraphic" values="0 0 0 0 1.000000 0 0 0 0 1.000000 0 0 0 0 1.000000 0 0 0 1.000000 0"/></filter></defs><g fill="none" fill-rule="evenodd"><g fill-rule="nonzero"><path d="M145 210H15c-8.3 0-15-6.7-15-15V15C0 6.7 6.7 0 15 0h95l50 50v145c0 8.3-6.7 15-15 15Z" fill="#8C50E7"/><path fill="#B380FF" d="M160 50h-50V0z"/><path fill="#7C3FD8" d="m110 50 50 50V50z"/></g><g filter="url(#a)"><path d="M126.958 104H33.042A2.042 2.042 0 0 0 31 106.031v60.938c0 1.117.919 2.031 2.042 2.031h93.916a2.042 2.042 0 0 0 2.042-2.031V106.03a2.042 2.042 0 0 0-2.042-2.031Zm-79.625 4.063v8.124h-8.166v-8.124h8.166Zm-8.166 36.562h8.166v8.125h-8.166v-8.125Zm0-4.063v-8.125h8.166v8.125h-8.166Zm0-12.187v-8.125h8.166v8.125h-8.166Zm0 36.563v-8.125h8.166v8.125h-8.166Zm65.333-4.063h-49v-48.75h49v48.75Zm16.333-8.125h-8.166v-8.125h8.166v8.125Zm0-12.188h-8.166v-8.125h8.166v8.125Zm0-12.187h-8.166v-8.125h8.166v8.125Zm-8.166 36.563v-8.125h8.166v8.125h-8.166Zm8.166-48.75h-8.166v-8.126h8.166v8.126Z" fill="#000" fill-rule="nonzero"/></g></g></svg>
