<svg xmlns="http://www.w3.org/2000/svg" viewBox="0 0 6725.02806 832.948642"><g fill-rule="nonzero" fill="none"><path d="M6.2433764 545.303499c-18.0523972 53.582987 4.083796 112.471142 52.9624126 140.894087L313.42638 821.259215c29.349785 15.592874 64.52863 15.585491 93.871867-.0197l258.106361-137.264991c34.366988-19.677106 55.455822-56.297552 55.455822-95.952178V419.302974c0-2.559532-.654951-5.076491-1.902533-7.311384-4.037965-7.233532-13.17532-9.82405-20.408851-5.786084l-338.181497 188.78266-247.44585-137.790174-50.381351 28.13463c-25.8052822 14.960609-46.8640746 31.731977-56.2969716 59.970877ZM7e-7 413.645667c0 2.559532.6549505 5.076491 1.9025322 7.311384 4.0379659 7.233532 13.1753201 9.82405 20.4088519 5.786084l338.1814962-188.78266 247.44585 137.790174 50.381352-28.13463c25.805282-14.960609 46.864074-31.731977 56.296971-59.970877 18.052397-53.582987-4.083796-112.471142-52.962412-140.894087L407.43405 11.6894262c-29.349784-15.5928742-64.528629-15.5854916-93.871867.0197L55.455822 148.9741173C21.0888342 168.651223 7e-7 205.271669 7e-7 244.926295Z" fill="#37F"/><g fill="#909FBD"><path d="M3411.34603 230.6801355h67.3585966V454.567591c0 18.779551 2.3528777 34.48759 7.0586332 47.12412 4.7057554 12.636529 12.3634758 22.158076 22.9731612 28.564642 10.609685 6.406565 24.611481 9.609848 42.005388 9.609848 17.393907 0 31.334572-3.203283 41.821994-9.609848 10.487423-6.406566 18.145143-15.928113 22.973161-28.564642 4.828019-12.63653 7.242028-28.344569 7.242028-47.12412V230.6801355h67.358596V445.60166c0 35.613765-4.567191 64.922851-13.701573 87.927258-9.134382 23.004406-23.929527 40.009789-44.385435 51.016149s-47.713698 16.50954-81.773369 16.50954-61.2142168-5.50318-81.4636368-16.50954-34.889699-28.011743-43.9208371-51.016149c-9.03113806-23.004407-13.5467071-52.313493-13.5467071-87.927258V230.6801355ZM3752.980218 699.125593v-376.81364h66.739133v45.286104h2.453404c4.749227-15.812642 13.966476-28.356795 27.651748-37.632459 13.685271-9.275663 29.499272-13.913495 47.442003-13.913495 23.094065 0 42.508023 5.554802 58.241874 16.664406 15.733851 11.109604 27.727822 27.245563 35.981913 48.407878 8.25409 21.162315 12.381136 46.909481 12.381136 77.241498 0 30.234208-4.127046 56.019411-12.381136 77.35561-8.254091 21.3362-20.248062 37.559102-35.981913 48.668706-15.733851 11.109604-35.147809 16.664406-58.241874 16.664406-17.942731 0-33.679299-4.724775-47.209704-14.174323-13.530406-9.449548-22.825088-21.906759-27.884047-37.371632h-2.453404v149.616941h-66.739133Zm122.882164-153.284822c17.274361 0 31.28295-5.857741 42.025765-17.573225 10.742816-11.715483 16.114224-27.117867 16.114224-46.207149v-47.014084c0-19.333808-5.371408-34.797323-16.114224-46.390543-10.742815-11.593221-24.751404-17.389832-42.025765-17.389832-10.558063 0-20.098629 1.770092-28.621698 5.310277-8.523068 3.540184-15.240724 8.5842-20.152968 15.132047-4.912244 6.547846-7.368365 14.250396-7.368365 23.10765v86.55384c0 9.264796 2.456121 17.24855 7.368365 23.951263 4.912244 6.702713 11.6299 11.798351 20.152968 15.286913 8.523069 3.488562 18.063635 5.232843 28.621698 5.232843ZM4152.546167 594.794756h-35.562144c-22.844106 0-39.746245-5.740913-50.706417-17.222739-10.960171-11.481826-16.440257-27.650388-16.440257-48.505688V208.77065973h66.739132V541.732745h35.969686v53.062011ZM4295.469369 601.054607c-25.95773 0-48.371199-5.825139-67.240409-17.475416-18.86921-11.650276-33.433415-28.178835-43.692614-49.585675-10.259199-21.40684-15.388798-46.61605-15.388798-75.627631 0-29.250671 5.129599-54.457164 15.388798-75.619479 10.259199-21.162315 24.823404-37.568611 43.692614-49.218888 18.86921-11.650276 41.282679-17.475415 67.240409-17.475415 25.95773 0 48.372558 5.825139 67.244485 17.475415 18.871927 11.650277 33.43749 28.056573 43.696688 49.218888 10.259198 21.162315 15.388798 46.368808 15.388798 75.619479 0 29.011581-5.1296 54.220791-15.388798 75.627631-10.259198 21.40684-24.824761 37.935399-43.696688 49.585675-18.871927 11.650277-41.286755 17.475416-67.244485 17.475416Zm0-53.958605c17.459113 0 31.234044-5.42303 41.324792-16.26909 10.090749-10.84606 15.136123-26.482101 15.136123-46.908122v-50.739021c0-20.670547-5.045374-36.367719-15.136123-47.091516-10.090748-10.723797-23.865679-16.085696-41.324792-16.085696-17.10591 0-30.791182 5.361899-41.055815 16.085696-10.264632 10.723797-15.396949 26.420969-15.396949 47.091516v50.739021c0 20.426021 5.132317 36.062062 15.396949 46.908122 10.264633 10.84606 23.949905 16.26909 41.055815 16.26909ZM4702.20883 594.794756h-37.0782c-9.906 0-18.76597-2.347443-26.57992-7.042331-7.81394-4.694888-13.89855-11.52258-18.25382-20.483078-4.35527-8.960497-6.5329-19.564749-6.5329-31.812754v-5.860459l16.53807 18.437215h-18.62469c-4.58077 17.3287-13.92436 30.497751-28.03076 39.507154-14.1064 9.009402-31.28295 13.514104-51.52965 13.514104-27.78352 0-49.15776-7.36429-64.12271-22.09287-14.96496-14.72858-22.44743-34.12352-22.44743-58.184819 0-18.752381 4.60251-34.260725 13.80753-46.525033 9.20502-12.264307 22.48547-21.500574 39.84134-27.708803 17.35587-6.208228 38.33887-9.312342 62.94899-9.312342h46.22345v-19.985876c0-14.95952-3.98984-26.684513-11.96952-35.174979-7.97968-8.490465-20.91371-12.735697-38.8021-12.735697-15.50291 0-28.08375 3.405695-37.7425 10.217086-9.65875 6.811391-17.64794 14.955445-23.96756 24.432163l-39.75168-35.611049c9.99837-15.731134 23.3644-28.383965 40.09809-37.958493 16.73369-9.574528 38.74233-14.361792 66.02593-14.361792 36.75488 0 64.75168 8.427976 83.9904 25.283926 19.23871 16.855951 28.85807 40.890081 28.85807 72.10239v128.294326h27.10157v53.062011Zm-93.8407-117.437398h-42.79195c-17.51888 0-30.61593 2.863664-39.29115 8.590992-8.67522 5.727329-13.01283 14.095531-13.01283 25.104608v8.754009c0 10.759118 3.64207 18.933059 10.92621 24.521822 7.28414 5.588764 17.33278 8.383146 30.14591 8.383146 10.23203 0 19.36369-1.499756 27.39499-4.499267 8.0313-2.999512 14.47727-7.440365 19.33789-13.322559 4.86062-5.882194 7.29093-13.099769 7.29093-21.652724v-35.880027ZM4909.36465 594.794756v-45.286104h-2.45341c-5.05896 15.464873-14.35364 27.922084-27.88404 37.371632-13.53041 9.449548-29.26698 14.174323-47.20971 14.174323-22.74629 0-42.07195-5.554802-57.97697-16.664406-15.90502-11.109604-27.98593-27.332506-36.24274-48.668706-8.25681-21.336199-12.38521-47.121402-12.38521-77.35561 0-30.332017 4.1284-56.079183 12.38521-77.241498 8.25681-21.162315 20.33772-37.298274 36.24274-48.407878 15.90502-11.109604 35.23068-16.664406 57.97697-16.664406 17.94273 0 33.75673 4.637832 47.44201 13.913495 13.68527 9.275664 22.90252 21.819817 27.65174 37.632459h2.45341V208.77065973h66.73913V594.794756h-66.73913Zm-56.14303-48.953985c10.6613 0 20.22768-1.744281 28.69913-5.232843 8.47144-3.488562 15.16329-8.5842 20.07553-15.286913 4.91225-6.702713 7.36837-14.686467 7.36837-23.951263v-86.55384c0-8.857254-2.45612-16.559804-7.36837-23.10765-4.91224-6.547847-11.60409-11.591863-20.07553-15.132047-8.47145-3.540185-18.03783-5.310277-28.69913-5.310277-17.17112 0-31.1539 5.796611-41.94834 17.389832-10.79443 11.59322-16.19165 27.056735-16.19165 46.390543v47.014084c0 19.089282 5.39722 34.491666 16.19165 46.207149 10.79444 11.715484 24.77722 17.573225 41.94834 17.573225ZM5281.98401 594.794756h-78.29703l-84.27161-364.1146205h68.85836l35.81482 174.9090175 22.53709 111.511733h1.41009l26.18052-111.511733 41.86275-174.9090175h75.82733l41.76494 174.9090175L5459.485 516.94602h1.56496l22.83867-111.356867 36.80107-174.9090175h66.19303l-87.1244 364.1146205h-77.9384l-46.36201-192.571902-22.35777-95.658336h-1.4101l-23.02614 95.658336zM5656.44974 283.0982302c-13.59561 0-23.52198-3.215509-29.77911-9.646527-6.25714-6.431018-9.3857-14.4745451-9.3857-24.1305815v-10.0907481c0-9.8951278 3.12856-17.9970694 9.3857-24.30582466 6.25713-6.30875529 16.1835-9.46313294 29.77911-9.46313294 13.69886 0 23.6524 3.15437765 29.86063 9.46313294 6.20823 6.30875526 9.31234 14.41069686 9.31234 24.30582466v10.0907481c0 9.6560364-3.10411 17.6995635-9.31234 24.1305815-6.20823 6.431018-16.16177 9.646527-29.86063 9.646527Zm-33.36956 311.6965258V322.311953h66.73913v272.482803h-66.73913ZM5919.93705 594.794756v-45.286104h-2.4534c-5.05896 15.464873-14.35364 27.922084-27.88405 37.371632-13.5304 9.449548-29.26697 14.174323-47.2097 14.174323-22.7463 0-42.07195-5.554802-57.97697-16.664406-15.90502-11.109604-27.98593-27.332506-36.24274-48.668706-8.25681-21.336199-12.38521-47.121402-12.38521-77.35561 0-30.332017 4.1284-56.079183 12.38521-77.241498 8.25681-21.162315 20.33772-37.298274 36.24274-48.407878 15.90502-11.109604 35.23067-16.664406 57.97697-16.664406 17.94273 0 33.75673 4.637832 47.442 13.913495 13.68527 9.275664 22.90252 21.819817 27.65175 37.632459h2.4534V208.77065973h66.73914V594.794756h-66.73914Zm-56.14303-48.953985c10.66131 0 20.22769-1.744281 28.69913-5.232843 8.47145-3.488562 15.1633-8.5842 20.07554-15.286913 4.91224-6.702713 7.36836-14.686467 7.36836-23.951263v-86.55384c0-8.857254-2.45612-16.559804-7.36836-23.10765-4.91224-6.547847-11.60409-11.591863-20.07554-15.132047-8.47144-3.540185-18.03782-5.310277-28.69913-5.310277-17.17111 0-31.15389 5.796611-41.94833 17.389832-10.79444 11.59322-16.19166 27.056735-16.19166 46.390543v47.014084c0 19.089282 5.39722 34.491666 16.19166 46.207149 10.79444 11.715484 24.77722 17.573225 41.94833 17.573225ZM6293.26543 617.543769c0 18.920832-4.68402 34.931812-14.05206 48.03294-9.36804 13.101127-24.50009 23.011198-45.39614 29.730213-20.89606 6.719014-48.71897 10.078522-83.46875 10.078522-30.51677 0-55.04674-2.54714-73.58992-7.641419-18.54317-5.094279-31.99886-12.474871-40.36706-22.141775-8.36821-9.666904-12.55231-21.208503-12.55231-34.624797 0-15.100801 4.31588-26.946699 12.94762-35.537691 8.63175-8.590992 20.53606-14.133568 35.71294-16.627727v-5.738196c-11.32425-2.847363-19.99267-8.294845-26.00528-16.342448-6.01261-8.047602-9.01891-17.573225-9.01891-28.576868 0-14.05206 5.02092-24.88861 15.06276-32.509652 10.04185-7.621041 21.59975-12.800904 34.6737-15.539589v-2.086617c-16.24192-7.650928-28.55241-18.300009-36.93148-31.947243-8.37907-13.647234-12.56861-29.491122-12.56861-47.531662 0-18.431781 4.2955-34.603061 12.88649-48.513839 8.59099-13.910779 21.27371-24.717443 38.04815-32.419993 16.77445-7.70255 37.33088-11.553825 61.66931-11.553825 9.00397 0 17.52024.562409 25.54883 1.687225 8.02858 1.124817 15.44993 2.814759 22.26404 5.069827v-8.745858c0-13.1282974 3.29294-23.0220668 9.87882-29.6813085 6.58589-6.6592417 16.05445-9.9888625 28.4057-9.9888625h42.37625v51.228071h-57.74059v7.286857c14.14987 7.851982 24.71608 18.304085 31.69864 31.356307 6.98256 13.052222 10.47384 27.810689 10.47384 44.275399 0 18.084012-4.23437 34.046086-12.7031 47.886224-8.46873 13.840137-21.08895 24.548991-37.86068 32.126562-16.77173 7.57757-37.50069 11.366356-62.18688 11.366356-7.71071 0-15.11303-.444222-22.20699-1.332664-7.09395-.888442-13.65674-2.047221-19.68837-3.476336-5.02092 2.434386-9.43053 5.630877-13.22882 9.589471-3.79829 3.958595-5.69744 8.885781-5.69744 14.78156 0 7.015162 2.90577 12.220837 8.71733 15.617023 5.81155 3.396186 14.68103 5.094279 26.60844 5.094279h72.82781c33.38587 0 57.64279 6.77607 72.77076 20.328211 15.12797 13.552141 22.69196 32.559916 22.69196 57.023323Zm-62.66371 8.27311c0-8.819216-3.47226-15.648267-10.41678-20.487153-6.94452-4.838886-18.88823-7.258329-35.83112-7.258329h-92.66698c-5.02092 3.580938-8.6725 7.801718-10.95474 12.66234-2.28224 4.860621-3.42335 9.991579-3.42335 15.392874 0 10.351575 4.37293 18.475252 13.11878 24.371031 8.74586 5.895779 23.6035 8.843669 44.57291 8.843669h33.45107c21.58345 0 37.33767-2.793024 47.26269-8.37907 9.92501-5.586047 14.88752-13.967835 14.88752-25.145362Zm-80.13097-171.420456c16.01913 0 28.20328-3.585014 36.55247-10.755042 8.34918-7.170028 12.52377-17.539264 12.52377-31.107706v-8.721406c0-13.812968-4.17459-24.244693-12.52377-31.295176-8.34919-7.050482-20.53334-10.575723-36.55247-10.575723-15.77461 0-27.89764 3.525241-36.36908 10.575723-8.47145 7.050483-12.70717 17.482208-12.70717 31.295176v8.721406c0 13.568442 4.23572 23.937678 12.70717 31.107706 8.47144 7.170028 20.59447 10.755042 36.36908 10.755042ZM6423.11591 601.054607c-26.79455 0-49.78537-5.825139-68.97246-17.475416-19.18709-11.650276-33.88443-28.178835-44.09201-49.585675-10.20757-21.40684-15.31136-46.61605-15.31136-75.627631 0-28.76162 4.98152-53.78472 14.94458-75.069297 9.96305-21.284578 24.35337-37.813136 43.17096-49.585676 18.81758-11.772539 41.50139-17.658809 68.05141-17.658809 28.41386 0 51.74294 6.263926 69.98725 18.791777 18.24431 12.527851 31.81683 29.193616 40.71755 49.997293 8.90073 20.803678 13.35109 43.654576 13.35109 68.552696v22.031738h-181.0303v6.63479c0 19.621804 5.5711 35.453465 16.71331 47.494983 11.1422 12.041517 27.64088 18.062276 49.49601 18.062276 16.54622 0 30.18531-3.508939 40.91725-10.526818 10.73195-7.017879 20.18965-15.794983 28.3731-26.33131l35.98599 40.142919c-11.14493 15.138839-26.36256 27.282242-45.65289 36.430209-19.29034 9.147967-41.50683 13.721951-66.64948 13.721951Zm-1.10036-234.605819c-11.76982 0-22.00865 2.68027-30.71647 8.04081-8.70782 5.36054-15.44585 12.80498-20.2141 22.33332-4.76824 9.52834-7.15236 20.644736-7.15236 33.349189v4.018367h111.52803v-4.996469c0-12.568605-2.03635-23.538286-6.10906-32.909043-4.07271-9.370757-10.09075-16.686142-18.05412-21.946155-7.96338-5.260013-17.72402-7.890019-29.28192-7.890019ZM6720.85483 594.794756h-47.74766c-22.8441 0-40.29778-6.012608-52.36104-18.037823-12.06325-12.025216-18.09488-29.128409-18.09488-51.30958V375.373965h-40.29778v-53.062012h20.99658c10.03097 0 16.8804-2.316199 20.54828-6.948596 3.66788-4.632398 5.50182-11.5918628 5.50182-20.8783941v-46.4027698h59.99024v74.2297599h55.63768v53.062012h-55.63768v166.35878h51.46444v53.062011Z"/></g><g fill="#000"><path d="M981.587513 594.794756V230.6801348h168.836637c29.908173 0 53.434234 8.5203516 70.578181 25.561055 17.143948 17.0407034 25.715921 39.6973401 25.715921 67.9699102 0 18.328537-3.094604 33.066626-9.283814 44.214267-6.18921 11.147642-14.258548 19.329733-24.208014 24.546275-9.949467 5.216542-20.518398 8.275826-31.706794 9.177853v3.129926c8.080206.103244 16.635878 1.745639 25.667016 4.927186 9.031138 3.181547 17.590886 8.076131 25.679242 14.683751 8.088357 6.607619 14.689185 15.311365 19.802482 26.111237 5.113298 10.799872 7.669947 23.972998 7.669947 39.51938 0 19.333808-4.086291 36.877147-12.258873 52.630016-8.172582 15.75287-19.301205 28.298381-33.385868 37.636535-14.084663 9.338153-30.169 14.00723-48.253012 14.00723H981.587513Zm68.825749-155.778981v97.312958h96.212594c8.596426 0 16.006904-1.559529 22.231434-4.678586 6.22453-3.119058 11.034888-7.626476 14.431074-13.522255 3.396186-5.895779 5.094279-13.09026 5.094279-21.583442v-17.736242c0-8.493182-1.698093-15.687663-5.094279-21.583442-3.396186-5.895779-8.206544-10.404556-14.431074-13.52633-6.22453-3.121774-13.635008-4.682661-22.231434-4.682661h-96.212594Zm0-149.8696173v93.1886293h85.233403c8.292128 0 15.420044-1.509265 21.383746-4.527795 5.963703-3.01853 10.532253-7.407761 13.705649-13.167693 3.173396-5.759931 4.760094-12.682717 4.760094-20.768357v-16.260939c0-8.08564-1.586698-15.008426-4.760094-20.7683573-3.173396-5.7599316-7.741946-10.1491625-13.705649-13.1676927-5.963702-3.0185302-13.091618-4.5277953-21.383746-4.5277953h-85.233403ZM1434.156678 466.427072l47.552039-144.115119h62.916385l-109.840809 320.735815c-4.314515 12.987015-9.677772 23.627946-16.089771 31.922791-6.412 8.294844-14.546545 14.394395-24.403635 18.29865-9.857091 3.904256-22.251811 5.856384-37.184162 5.856384h-40.14292v-53.062012h48.872476l12.625662-38.260074-97.370014-285.491554h66.372344l47.397173 144.115119 17.671036 68.825749h2.975059l18.649137-68.825749ZM1716.86465 594.794756h-47.747659c-22.844106 0-40.297786-6.012608-52.361039-18.037824-12.063253-12.025216-18.094879-29.128409-18.094879-51.30958V375.373964h-40.297786v-53.062011h20.996581c10.030975 0 16.880403-2.316199 20.548284-6.948597 3.667881-4.632398 5.501822-11.5918625 5.501822-20.8783938v-46.4027699h59.990231v74.2297607h55.637679v53.062011h-55.637679v166.35878h51.464445v53.062012ZM1883.077762 601.054606c-26.79455 0-49.785371-5.825139-68.972464-17.475415-19.187093-11.650277-33.884428-28.178836-44.092005-49.585676s-15.311366-46.61605-15.311366-75.62763c0-28.761621 4.981526-53.78472 14.944578-75.069298 9.963051-21.284577 24.353371-37.813136 43.170959-49.585675 18.817588-11.77254 41.501394-17.65881 68.051418-17.65881 28.413852 0 51.742933 6.263926 69.987245 18.791777 18.244312 12.527852 31.816826 29.193616 40.717556 49.997294 8.90072 20.803677 13.35109 43.654576 13.35109 68.552695v22.031739h-181.030309v6.634789c0 19.621805 5.571104 35.453466 16.713311 47.494983 11.142208 12.041518 27.64088 18.062276 49.496017 18.062276 16.546218 0 30.185302-3.508939 40.91725-10.526818 10.731948-7.017879 20.189647-15.794982 28.373097-26.33131l35.985984 40.142919c-11.14492 15.13884-26.362551 27.282243-45.652888 36.43021-19.290337 9.147966-41.506828 13.72195-66.649473 13.72195Zm-1.100364-234.605819c-11.769823 0-22.008645 2.68027-30.716466 8.04081s-15.445854 12.80498-20.2141 22.33332c-4.768245 9.52834-7.152368 20.644736-7.152368 33.349189v4.018368h111.528035v-4.996469c0-12.568606-2.036353-23.538287-6.10906-32.909044-4.072706-9.370756-10.090748-16.686141-18.054125-21.946154-7.963377-5.260013-17.724016-7.89002-29.281916-7.89002ZM2149.168893 601.054606c-25.91969 0-47.76667-4.413684-65.54095-13.241051-17.77428-8.827366-33.48368-21.117485-47.1282-36.870354l40.76238-39.441947c9.94404 11.394883 20.98164 20.375758 33.11282 26.942623 12.13118 6.566866 25.98354 9.850299 41.55709 9.850299 16.01913 0 27.57431-2.783515 34.66555-8.350543 7.09124-5.567028 10.63686-13.222032 10.63686-22.96501 0-7.976962-2.5322-14.319679-7.59659-19.028152-5.0644-4.708472-13.64452-7.913113-25.74038-9.613923l-27.27273-3.496713c-19.29034-2.678912-35.72652-7.316744-49.30855-13.913496-13.58202-6.596752-23.86703-15.566758-30.85503-26.91002-6.98799-11.343261-10.48199-25.239096-10.48199-41.687505 0-26.533723 9.43597-47.546605 28.3079-63.038648 18.87192-15.492042 43.88415-23.238064 75.03669-23.238064 17.79058 0 33.01229 1.677716 45.66512 5.033148 12.65283 3.355432 23.8059 8.250015 33.45922 14.68375s18.74559 14.171606 27.27681 23.213612l-39.41749 39.384891c-7.87372-8.596427-17.36538-15.671362-28.47499-21.224805-11.1096-5.553444-23.27474-8.330165-36.49541-8.330165-14.09553 0-24.50009 2.57295-31.21367 7.718851-6.71358 5.145902-10.07037 12.068687-10.07037 20.768358 0 8.944195 2.71831 15.724341 8.15492 20.340437 5.43662 4.616097 14.53975 7.945717 27.30941 9.988863l27.85145 3.871652c29.90817 4.026518 52.04179 12.754717 66.40087 26.184595 14.35907 13.429878 21.53861 31.507098 21.53861 54.231658 0 17.388473-4.61202 32.832969-13.83606 46.333488-9.22404 13.500519-22.23279 24.009677-39.02625 31.527475-16.79347 7.517797-36.55248 11.276696-59.27704 11.276696ZM2423.659353 601.054606c-40.11304 0-71.05637-12.876979-92.82999-38.630938-21.77363-25.753958-32.66045-60.439886-32.66045-104.057783 0-43.612464 10.88682-78.234543 32.66045-103.866239 21.77362-25.631696 52.71695-38.447544 92.82999-38.447544 27.51726 0 50.24453 6.156607 68.18183 18.469819 17.9373 12.313212 30.85639 29.158295 38.75728 50.535249l-54.44766 24.35473c-3.15166-11.460091-9.09091-20.893337-17.81775-28.29974-8.72684-7.406402-20.28474-11.109604-34.6737-11.109604-18.31224 0-32.16053 5.848233-41.54487 17.544698-9.38434 11.696465-14.07651 27.162696-14.07651 46.398694v49.5816c0 18.888229 4.69217 34.267518 14.07651 46.137868 9.38434 11.870349 23.23263 17.805524 41.54487 17.805524 15.81807 0 28.15846-4.12297 37.02114-12.36891 8.86269-8.24594 15.71755-18.424989 20.56459-30.537147l51.21992 24.387334c-8.93876 24.034129-22.68924 42.059727-41.25144 54.076792-18.56219 12.017064-41.08026 18.025597-67.55421 18.025597ZM2817.173653 594.794756h-37.0782c-9.90599 0-18.76596-2.347444-26.57991-7.042332-7.81394-4.694888-13.89855-11.52258-18.25382-20.483077-4.35527-8.960498-6.5329-19.564749-6.5329-31.812755v-5.860459l16.53807 18.437215h-18.62469c-4.58077 17.3287-13.92436 30.497752-28.03076 39.507154-14.1064 9.009403-31.28295 13.514104-51.52965 13.514104-27.78352 0-49.15776-7.36429-64.12271-22.09287-14.96496-14.72858-22.44743-34.123519-22.44743-58.184819 0-18.752381 4.60251-34.260725 13.80753-46.525032 9.20502-12.264307 22.48547-21.500575 39.84134-27.708803 17.35587-6.208229 38.33886-9.312343 62.94899-9.312343h46.22345v-19.985876c0-14.95952-3.98984-26.684513-11.96952-35.174978-7.97968-8.490466-20.91371-12.735698-38.80211-12.735698-15.50291 0-28.08374 3.405695-37.74249 10.217086-9.65875 6.811391-17.64794 14.955445-23.96757 24.432163l-39.75168-35.611049c9.99838-15.731134 23.36441-28.383965 40.09809-37.958493 16.73369-9.574528 38.74234-14.361792 66.02594-14.361792 36.75488 0 64.75168 8.427976 83.9904 25.283927 19.23871 16.855951 28.85807 40.89008 28.85807 72.102389v128.294326h27.10156v53.062012Zm-93.84069-117.437399h-42.79195c-17.51888 0-30.61594 2.863664-39.29115 8.590993-8.67522 5.727328-13.01283 14.09553-13.01283 25.104607v8.75401c0 10.759117 3.64207 18.933058 10.92621 24.521822 7.28414 5.588764 17.33278 8.383145 30.14591 8.383145 10.23203 0 19.36369-1.499755 27.39499-4.499267 8.0313-2.999511 14.47726-7.440364 19.33789-13.322559 4.86062-5.882194 7.29093-13.099769 7.29093-21.652724v-35.880027ZM2969.834873 594.794756h-35.56214c-22.84411 0-39.74625-5.740913-50.70642-17.222739-10.96017-11.481826-16.44026-27.650389-16.44026-48.505689V208.770659h66.73913v332.962085h35.96969v53.062012ZM3126.812083 601.054606c-26.79455 0-49.78537-5.825139-68.97246-17.475415-19.18709-11.650277-33.88443-28.178836-44.092-49.585676-10.20758-21.40684-15.31137-46.61605-15.31137-75.62763 0-28.761621 4.98153-53.78472 14.94458-75.069298 9.96305-21.284577 24.35337-37.813136 43.17096-49.585675 18.81758-11.77254 41.50139-17.65881 68.05142-17.65881 28.41385 0 51.74293 6.263926 69.98724 18.791777 18.24431 12.527852 31.81683 29.193616 40.71755 49.997294 8.90073 20.803677 13.35109 43.654576 13.35109 68.552695v22.031739h-181.0303v6.634789c0 19.621805 5.5711 35.453466 16.71331 47.494983 11.14221 12.041518 27.64088 18.062276 49.49601 18.062276 16.54622 0 30.18531-3.508939 40.91725-10.526818 10.73195-7.017879 20.18965-15.794982 28.3731-26.33131l35.98599 40.142919c-11.14492 15.13884-26.36256 27.282243-45.65289 36.43021-19.29034 9.147966-41.50683 13.72195-66.64948 13.72195Zm-1.10036-234.605819c-11.76982 0-22.00864 2.68027-30.71647 8.04081-8.70782 5.36054-15.44585 12.80498-20.2141 22.33332-4.76824 9.52834-7.15236 20.644736-7.15236 33.349189v4.018368h111.52803v-4.996469c0-12.568606-2.03635-23.538287-6.10906-32.909044-4.0727-9.370756-10.09075-16.686141-18.05412-21.946154-7.96338-5.260013-17.72402-7.89002-29.28192-7.89002Z"/></g></g></svg>