<svg width="313" height="100" xmlns="http://www.w3.org/2000/svg"><g transform="translate(0, 17)"><path d="M28.81 70.009a9.07 9.07 0 0 0 8.246 0L60.04 57.98c2.983-1.542 4.825-4.626 4.825-7.974V21.983a8.892 8.892 0 0 0-4.825-7.93L37.056 2.024a8.81 8.81 0 0 0-8.247 0L5.825 14.053A8.892 8.892 0 0 0 1 21.983v28.023c0 3.348 1.842 6.432 4.825 7.974L28.809 70.01Zm6.316-3.349a5.043 5.043 0 0 1-4.562-.088L7.579 54.588l-.175-.088a5.242 5.242 0 0 1-2.588-4.494V21.807c.088-1.85 1.14-3.525 2.763-4.362L30.564 5.417l.175-.088a5.334 5.334 0 0 1 4.562.088l22.984 12.028.176.088c1.579.882 2.588 2.6 2.588 4.495v28.154c-.044 1.85-1.14 3.525-2.764 4.406L35.301 66.572l-.175.088Zm.965-15.817a.899.899 0 0 0 .877-.793l1.228-13.747h8.334a.57.57 0 0 0 .526-.353c.088-.176.044-.396-.087-.572L33.02 19.516 19.072 35.378c-.132.176-.176.396-.088.572a.57.57 0 0 0 .526.353h8.334l1.229 13.747c.043.44.438.793.877.793h6.14Zm50.224 2.159c1.886 0 3.685-.441 5.352-1.322 1.666-.837 2.982-1.983 4.079-3.393l.044 3.877h5.132l-.044-30.71h-5.132v17.933a8.673 8.673 0 0 1-1.097 4.23c-.79 1.234-1.798 2.29-3.026 3.04a8.574 8.574 0 0 1-4.211 1.101 8.574 8.574 0 0 1-4.211-1.101c-1.272-.75-2.28-1.806-3.027-3.04-.79-1.278-1.14-2.688-1.14-4.23V21.455h-5.132v19.078c0 2.29.526 4.406 1.667 6.256 1.096 1.895 2.588 3.393 4.474 4.538 1.886 1.102 3.948 1.675 6.272 1.675Zm24.96 11.411V46.921c1.008 1.807 2.412 3.26 4.123 4.362 1.754 1.146 3.816 1.675 6.185 1.675 2.237 0 4.298-.397 6.272-1.234a16.44 16.44 0 0 0 5.132-3.525c1.447-1.454 2.588-3.172 3.421-5.155a16.005 16.005 0 0 0 1.272-6.3c0-2.248-.438-4.318-1.272-6.257-.833-1.939-1.974-3.657-3.421-5.11a16.309 16.309 0 0 0-5.132-3.482 15.81 15.81 0 0 0-6.272-1.277c-2.37 0-4.43.572-6.185 1.674-1.71 1.145-3.115 2.6-4.123 4.406v-5.243h-5.132v42.958h5.132Zm10.264-16.478c-2.018 0-3.729-.529-5.22-1.498-1.491-1.014-2.632-2.38-3.421-4.054a13.271 13.271 0 0 1-1.229-5.64c0-2.07.439-3.92 1.229-5.595a9.648 9.648 0 0 1 3.42-4.054c1.492-.969 3.247-1.454 5.22-1.454 2.018 0 3.86.485 5.484 1.454a11.252 11.252 0 0 1 3.947 4.054c1.01 1.674 1.492 3.569 1.492 5.596 0 2.114-.527 3.965-1.492 5.683-1.009 1.674-2.325 3.04-3.991 4.01-1.667 1.013-3.466 1.498-5.44 1.498Zm26.012 4.23V12.07h-5.132v40.094h5.132Zm20.529.793c2.105 0 4.08-.441 5.921-1.234a16.133 16.133 0 0 0 4.87-3.48 16.659 16.659 0 0 0 3.289-5.156c.833-1.939 1.228-4.053 1.228-6.256 0-2.996-.702-5.728-2.105-8.195-1.36-2.424-3.202-4.406-5.527-5.86-2.325-1.454-4.869-2.16-7.676-2.16-2.15 0-4.08.397-5.965 1.234-1.843.881-3.466 2.027-4.87 3.481-1.36 1.498-2.5 3.216-3.29 5.155-.789 1.939-1.14 4.054-1.14 6.345 0 2.952.658 5.683 2.062 8.107 1.36 2.423 3.202 4.406 5.527 5.86 2.28 1.454 4.869 2.159 7.676 2.159Zm0-5.155c-1.842 0-3.553-.485-5.088-1.454-1.535-.97-2.764-2.292-3.685-3.966-.92-1.63-1.36-3.525-1.36-5.551 0-2.027.395-3.834 1.316-5.508a10.801 10.801 0 0 1 3.641-4.053c1.491-1.014 3.246-1.498 5.176-1.498 1.886 0 3.597.484 5.132 1.498a11.444 11.444 0 0 1 3.64 4.01c.922 1.673 1.36 3.524 1.36 5.55 0 1.983-.438 3.79-1.316 5.464a11.01 11.01 0 0 1-3.64 4.01c-1.535 1.013-3.29 1.498-5.176 1.498Zm34.521 5.155c2.281 0 4.3-.53 5.966-1.63 1.623-1.058 2.851-2.424 3.816-4.054l.175-.309.22 5.2h5.132v-30.71h-5.132l.175 5.243c-1.14-1.763-2.588-3.26-4.43-4.406-1.798-1.102-3.904-1.674-6.316-1.674-2.193 0-4.255.396-6.185 1.233-1.886.837-3.597 1.983-5.044 3.437-1.448 1.454-2.588 3.172-3.422 5.11-.79 1.94-1.184 4.01-1.184 6.213 0 2.247.395 4.362 1.228 6.345.834 1.983 2.018 3.701 3.51 5.199 1.49 1.498 3.201 2.688 5.175 3.525a15.867 15.867 0 0 0 6.316 1.278Zm-.131-4.98c-1.93 0-3.728-.528-5.395-1.497-1.667-1.014-2.983-2.335-3.948-4.01a10.881 10.881 0 0 1-1.535-5.64c0-2.07.482-3.965 1.447-5.639 1.01-1.718 2.281-3.04 3.948-4.054 1.667-1.013 3.465-1.498 5.483-1.498s3.772.485 5.22 1.498c1.491.97 2.631 2.336 3.465 4.01.79 1.674 1.184 3.569 1.184 5.684 0 2.026-.395 3.921-1.184 5.595a9.648 9.648 0 0 1-3.422 4.054c-1.49.969-3.245 1.498-5.263 1.498Zm35.223 4.98c2.325 0 4.387-.53 6.141-1.63 1.755-1.146 3.158-2.6 4.167-4.363v5.2h5.132V12.07h-5.132v14.584c-1.009-1.807-2.412-3.26-4.167-4.362-1.754-1.102-3.816-1.674-6.14-1.674-2.238 0-4.343.484-6.273 1.277-1.93.837-3.64 2.027-5.132 3.481a16.094 16.094 0 0 0-3.465 5.2c-.834 1.938-1.229 4.009-1.229 6.256 0 2.203.395 4.273 1.229 6.256.833 1.939 1.973 3.657 3.465 5.111 1.491 1.498 3.202 2.644 5.132 3.525 1.93.837 4.035 1.234 6.272 1.234Zm0-4.98c-1.93 0-3.728-.528-5.395-1.497a11.878 11.878 0 0 1-3.948-4.01 10.881 10.881 0 0 1-1.535-5.64c0-2.07.527-3.965 1.492-5.639 1.008-1.718 2.28-3.04 3.903-4.01 1.667-1.057 3.466-1.542 5.483-1.542 2.062 0 3.773.485 5.264 1.498 1.447.97 2.588 2.336 3.421 4.01.834 1.718 1.228 3.613 1.228 5.684 0 2.07-.394 3.921-1.228 5.64a9.798 9.798 0 0 1-3.421 4.009c-1.491.969-3.202 1.498-5.264 1.498Zm35.925 4.98c3.027 0 5.79-.882 8.247-2.6 2.368-1.674 4.167-3.745 5.395-6.389l.132-.308-5.22-1.234c-.921 1.674-2.15 2.952-3.597 3.966a9.27 9.27 0 0 1-4.957 1.41c-1.754 0-3.29-.441-4.693-1.234-1.404-.837-2.544-1.895-3.421-3.26a10.957 10.957 0 0 1-1.667-4.318l-.044-.309h24.914c.176-2.467-.087-4.846-.745-7.05-.702-2.158-1.71-4.053-3.07-5.727-1.404-1.674-3.071-2.996-4.957-3.922-1.93-.925-4.036-1.365-6.317-1.365-2.149 0-4.123.396-5.965 1.233a15.21 15.21 0 0 0-4.869 3.481 16.659 16.659 0 0 0-3.29 5.155c-.79 1.983-1.184 4.054-1.184 6.345 0 2.952.702 5.64 2.062 8.063 1.36 2.467 3.246 4.45 5.527 5.86 2.324 1.453 4.868 2.203 7.72 2.203Zm9.914-18.33h-19.87c.219-1.762.789-3.348 1.71-4.758a10.768 10.768 0 0 1 3.51-3.392c1.403-.882 2.982-1.278 4.736-1.278 1.711 0 3.246.44 4.694 1.322 1.447.837 2.632 1.982 3.553 3.392.965 1.41 1.491 2.996 1.667 4.715Zm15.528 17.536V34.232c0-1.542.395-2.952 1.14-4.23.746-1.277 1.755-2.29 3.027-3.084 1.272-.749 2.676-1.101 4.211-1.101.79 0 1.623.132 2.457.396L312 21.058c-1.14-.308-2.28-.484-3.465-.484-1.93 0-3.729.44-5.352 1.277-1.666.881-3.026 1.983-4.123 3.437v-3.833h-5.132v30.71h5.132Z" fill="#525862" fill-rule="nonzero" stroke="#525862" stroke-width=".655"/></g></svg>
