<svg viewBox="0 0 140 39" width="280" height="78" xmlns="http://www.w3.org/2000/svg">
  <g fill="#373d44" fill-rule="evenodd" transform="translate(0, 14)">
    <path d="M37.408 19.124c.88 0 1.682-.178 2.408-.532.725-.354 1.3-.823 1.723-1.406v1.796h3.91V5.8h-3.91v7.158c0 .882-.236 1.567-.709 2.055-.473.488-1.116.732-1.931.732-.799 0-1.434-.244-1.907-.732-.472-.488-.709-1.173-.709-2.055V5.8H32.5v7.582c0 1.15-.004 2.332.436 3.182.44.85.91 1.437 1.71 1.886.798.45 1.719.674 2.762.674Zm14.325 3.891v-5.498c.464.46.974.709 1.7 1.087.724.378 1.56.567 2.505.567 1.124 0 1.93-.364 2.843-.923s1.634-1.354 2.163-2.386c.53-1.031.884-2.14.884-3.495 0-1.354-.354-2.475-.884-3.498-.53-1.024-1.25-1.812-2.163-2.363-.913-.551-1.719-.895-2.843-.895-.962 0-1.8.189-2.518.567-.717.378-1.28.874-1.687 1.488V5.8l-3.803.637V23.5l3.803-.485Zm3.054-7.364c-.858 0-1.585-.292-2.182-.874-.598-.583-.896-1.378-.896-2.386 0-1.008.298-1.804.896-2.386.597-.583 1.324-.874 2.182-.874.875 0 1.611.287 2.208.862.598.575.896 1.366.896 2.374s-.303 1.807-.908 2.398c-.606.59-1.338.886-2.196.886Zm12.54 3.33V1.5h-3.889v17.482h3.89Zm8.49.19c1.28 0 2.438-.276 3.476-.827a6.12 6.12 0 0 0 2.46-2.374c.6-1.032.9-2.225.9-3.58 0-1.354-.296-2.547-.89-3.578a6.062 6.062 0 0 0-2.434-2.375c-1.03-.55-2.186-.826-3.466-.826-1.28 0-2.435.275-3.466.826a6.062 6.062 0 0 0-2.435 2.375c-.593 1.031-.89 2.224-.89 3.579 0 1.37.293 2.567.878 3.59a6.026 6.026 0 0 0 2.412 2.363c1.023.551 2.174.827 3.454.827Zm-.002-3.497c-.799 0-1.463-.283-1.993-.85s-.794-1.378-.794-2.433c0-1.071.269-1.886.806-2.445.538-.56 1.215-.84 2.03-.84.798 0 1.47.284 2.016.851s.82 1.378.82 2.434c0 1.055-.282 1.866-.844 2.433a2.769 2.769 0 0 1-2.041.85Zm14.211 3.497c.933 0 1.75-.19 2.454-.567.703-.378 1.252-.874 1.647-1.489v1.867h3.614V5.8h-3.614v1.866c-.38-.614-.92-1.11-1.624-1.488-.703-.378-1.52-.567-2.453-.567-1.09 0-2.078.275-2.963.826-.884.552-1.584 1.34-2.097 2.363-.514 1.024-.77 2.213-.77 3.567 0 1.355.256 2.548.77 3.58.513 1.03 1.213 1.826 2.097 2.385a5.39 5.39 0 0 0 2.94.839Zm.991-3.52a2.848 2.848 0 0 1-2.114-.886c-.579-.59-.868-1.39-.868-2.398 0-1.008.29-1.8.868-2.374.578-.575 1.283-.862 2.114-.862s1.536.29 2.115.874c.578.582.868 1.378.868 2.386 0 1.008-.29 1.803-.868 2.386a2.867 2.867 0 0 1-2.115.874Zm14.472 3.52c.962 0 1.805-.19 2.53-.567.726-.378 1.284-.882 1.675-1.512v1.89h3.806V2.08l-3.806-.58v6.119c-.424-.615-1.006-1.103-1.748-1.465-.741-.362-1.56-.543-2.457-.543-1.124 0-2.143.275-3.055.826-.913.552-1.518 1.34-2.048 2.363-.53 1.024-.794 2.213-.794 3.567 0 1.355.264 2.548.794 3.58.53 1.03 1.135 1.826 2.048 2.385.912.56 1.93.839 3.055.839ZM126.51 6v14.54c0 1.58-.398 2.718-1.195 3.416-.798.697-1.91 1.046-3.335 1.046h-1.541V21.73h.943c.429 0 .736-.091.92-.26.184-.169.339-.5.339-.884V6h3.87Zm-8.513 8.719c.675 0 1.23.207 1.668.621.436.414.655.928.655 1.541 0 .598-.219 1.1-.656 1.506-.436.407-.992.61-1.667.61-.69 0-1.253-.203-1.69-.61a1.975 1.975 0 0 1-.656-1.506c0-.613.218-1.127.655-1.541.438-.414 1.001-.621 1.691-.621Zm16.529-8.924c1.61 0 2.879.399 3.806 1.196.928.797 1.461 1.855 1.599 3.174h-3.634l-.03-.162a1.537 1.537 0 0 0-.556-.896c-.33-.26-.763-.391-1.3-.391-.46 0-.813.088-1.058.264a.845.845 0 0 0-.368.725c0 .368.195.644.587.828.39.184 1 .368 1.828.552.95.245 1.725.487 2.323.724a4.007 4.007 0 0 1 1.576 1.15c.452.53.686 1.239.701 2.128 0 .751-.21 1.422-.632 2.012-.422.59-1.028 1.055-1.817 1.392-.79.337-1.706.506-2.749.506-1.12 0-2.116-.192-2.99-.575-.874-.383-1.564-.909-2.07-1.576a4.144 4.144 0 0 1-.851-2.242h3.887l.025.163c.075.37.274.677.596.918.368.276.82.414 1.357.414.49 0 .87-.096 1.138-.287.269-.192.403-.441.403-.748 0-.368-.192-.64-.575-.816-.383-.177-1.004-.372-1.863-.587-.92-.215-1.687-.44-2.3-.678a3.974 3.974 0 0 1-1.587-1.128c-.445-.513-.667-1.207-.667-2.081 0-.736.203-1.407.61-2.012.406-.606 1.004-1.085 1.794-1.438s1.728-.529 2.817-.529Zm-28.03 3.336c.889 0 1.643.29 2.262.874.618.582.928 1.378.928 2.386 0 1.008-.31 1.803-.928 2.386-.62.582-1.373.874-2.262.874-.89 0-1.643-.296-2.262-.886-.619-.59-.928-1.39-.928-2.398 0-1.008.31-1.8.928-2.374.619-.575 1.373-.862 2.262-.862ZM124.532.39c.674 0 1.23.203 1.667.61.437.406.656.916.656 1.529 0 .598-.219 1.1-.656 1.506-.437.407-.993.61-1.667.61-.69 0-1.254-.203-1.69-.61a1.975 1.975 0 0 1-.656-1.506c0-.613.218-1.123.655-1.53.437-.406 1-.609 1.69-.609Z" fill-rule="nonzero"/><path d="M24 16.5v5H2v-5h2v2.75a.25.25 0 0 0 .193.243l.057.007h17.5a.25.25 0 0 0 .25-.25V16.5h2Z"/><path d="M26 23a.5.5 0 0 1-.41.492l-.09.008H.5A.5.5 0 0 1 0 23V8.71a.5.5 0 0 1 .402-.49l3-.6A.5.5 0 0 1 4 8.11V19.5h18V4.673a.5.5 0 0 1 .407-.492l3-.568a.5.5 0 0 1 .593.49V23Z"/><path d="M10.75 5h4.5a.25.25 0 0 1 .25.25v8.35a.4.4 0 0 1-.4.4h-4.2a.4.4 0 0 1-.4-.4V5.25a.25.25 0 0 1 .25-.25Z"/><path d="m13 0 6.141 7.086a.25.25 0 0 1-.188.414H7.047a.25.25 0 0 1-.188-.414L13 0Z"/>
  </g>
</svg>
