<svg width="264" height="106" xmlns="http://www.w3.org/2000/svg"><g transform="translate(0, 29)"><path d="M24.428 59.165a7.645 7.645 0 0 0 6.947 0l19.363-10.127a7.542 7.542 0 0 0 4.065-6.715V18.729c0-2.82-1.552-5.38-4.065-6.678L31.375 1.923a7.425 7.425 0 0 0-6.947 0L5.065 12.051A7.486 7.486 0 0 0 1 18.729v23.594a7.542 7.542 0 0 0 4.065 6.715l19.363 10.127Zm5.32-2.82a4.25 4.25 0 0 1-3.842-.073L6.543 46.18l-.148-.074a4.413 4.413 0 0 1-2.18-3.784V18.58c.074-1.558.96-2.968 2.328-3.672L25.906 4.78l.148-.074a4.496 4.496 0 0 1 3.843.074L49.26 14.908l.148.074c1.33.742 2.18 2.189 2.18 3.784V42.47c-.037 1.558-.961 2.968-2.328 3.71l-19.363 10.09-.148.075Zm.814-13.317c.37 0 .702-.297.739-.668l1.035-11.575h7.02a.48.48 0 0 0 .444-.296c.074-.149.037-.334-.074-.483l-11.75-13.355-11.752 13.355c-.11.149-.147.334-.074.483a.48.48 0 0 0 .444.296h7.02L24.65 42.36c.036.37.369.668.739.668h5.173Zm42.311 1.818a9.543 9.543 0 0 0 4.508-1.113c1.405-.705 2.513-1.67 3.437-2.857l.037 3.265h4.323l-.037-25.858h-4.323v15.1a7.3 7.3 0 0 1-.924 3.56c-.665 1.04-1.515 1.93-2.55 2.56a7.227 7.227 0 0 1-3.547.928 7.227 7.227 0 0 1-3.547-.928c-1.072-.63-1.922-1.52-2.55-2.56-.665-1.075-.96-2.262-.96-3.56v-15.1h-4.324v16.064c0 1.929.443 3.71 1.404 5.268.924 1.595 2.18 2.856 3.77 3.82 1.588.928 3.325 1.41 5.283 1.41ZM93.9 54.454V39.726a10.329 10.329 0 0 0 3.474 3.673c1.478.964 3.215 1.41 5.21 1.41 1.885 0 3.621-.334 5.284-1.04a13.85 13.85 0 0 0 4.324-2.967c1.219-1.224 2.18-2.671 2.882-4.34a13.47 13.47 0 0 0 1.071-5.306c0-1.892-.369-3.635-1.071-5.267-.702-1.633-1.663-3.08-2.882-4.304a13.74 13.74 0 0 0-4.324-2.93 13.326 13.326 0 0 0-5.284-1.076c-1.995 0-3.732.482-5.21 1.41-1.441.964-2.624 2.188-3.474 3.71v-4.416h-4.323v36.17H93.9Zm8.647-13.875c-1.7 0-3.14-.445-4.397-1.261-1.257-.853-2.217-2.003-2.883-3.413a11.169 11.169 0 0 1-1.034-4.749c0-1.743.37-3.301 1.034-4.711a8.125 8.125 0 0 1 2.883-3.413c1.256-.816 2.734-1.224 4.397-1.224 1.7 0 3.252.408 4.62 1.224a9.477 9.477 0 0 1 3.325 3.413c.85 1.41 1.256 3.005 1.256 4.711 0 1.781-.443 3.34-1.256 4.786-.85 1.41-1.959 2.56-3.363 3.376-1.404.853-2.92 1.261-4.582 1.261Zm21.914 3.562V10.38h-4.324v33.76h4.324Zm17.294.667c1.774 0 3.437-.37 4.989-1.038a13.59 13.59 0 0 0 4.102-2.931 14.025 14.025 0 0 0 2.771-4.34c.702-1.633 1.035-3.413 1.035-5.268 0-2.523-.591-4.823-1.774-6.9-1.145-2.041-2.697-3.71-4.656-4.935-1.958-1.224-4.102-1.817-6.467-1.817-1.81 0-3.436.333-5.025 1.038a14.064 14.064 0 0 0-4.102 2.931c-1.145 1.261-2.106 2.708-2.771 4.34-.665 1.633-.961 3.414-.961 5.343 0 2.485.554 4.785 1.737 6.826 1.145 2.04 2.697 3.71 4.656 4.934 1.921 1.224 4.101 1.817 6.466 1.817Zm0-4.34a7.9 7.9 0 0 1-4.286-1.224c-1.293-.816-2.328-1.93-3.104-3.34-.776-1.372-1.146-2.967-1.146-4.673 0-1.707.333-3.228 1.109-4.638a9.096 9.096 0 0 1 3.067-3.413c1.256-.853 2.735-1.261 4.36-1.261 1.59 0 3.03.408 4.324 1.261a9.637 9.637 0 0 1 3.067 3.376c.776 1.41 1.145 2.968 1.145 4.675 0 1.669-.37 3.19-1.108 4.6a9.273 9.273 0 0 1-3.067 3.376c-1.294.853-2.772 1.261-4.36 1.261Zm29.083 4.34c1.921 0 3.621-.445 5.025-1.372 1.368-.89 2.402-2.04 3.215-3.413l.148-.26.185 4.378h4.323V18.283h-4.323l.148 4.415c-.961-1.484-2.18-2.745-3.733-3.71-1.515-.927-3.288-1.41-5.32-1.41-1.848 0-3.585.334-5.211 1.04a13.945 13.945 0 0 0-4.25 2.893c-1.219 1.224-2.18 2.671-2.882 4.303-.665 1.633-.997 3.376-.997 5.231 0 1.892.332 3.673 1.034 5.342.702 1.67 1.7 3.116 2.956 4.378a13.594 13.594 0 0 0 4.36 2.968c1.664.704 3.4 1.075 5.322 1.075Zm-.111-4.192c-1.626 0-3.14-.445-4.545-1.261-1.404-.853-2.513-1.966-3.326-3.376a9.158 9.158 0 0 1-1.293-4.748c0-1.744.406-3.34 1.22-4.749.85-1.447 1.92-2.56 3.325-3.413 1.404-.853 2.92-1.261 4.619-1.261 1.7 0 3.178.408 4.397 1.261 1.257.816 2.218 1.966 2.92 3.376.665 1.41.997 3.005.997 4.786 0 1.706-.332 3.301-.997 4.711a8.125 8.125 0 0 1-2.883 3.413c-1.256.816-2.734 1.261-4.434 1.261Zm29.674 4.192c1.958 0 3.695-.445 5.173-1.372 1.478-.965 2.66-2.189 3.51-3.673v4.378h4.324V10.38h-4.323v12.28a10.118 10.118 0 0 0-3.51-3.673c-1.479-.927-3.216-1.41-5.174-1.41-1.885 0-3.659.409-5.284 1.076-1.626.705-3.067 1.707-4.324 2.931a13.55 13.55 0 0 0-2.92 4.378c-.701 1.632-1.034 3.376-1.034 5.268 0 1.855.333 3.598 1.035 5.268.702 1.632 1.663 3.079 2.92 4.303 1.256 1.261 2.697 2.226 4.323 2.968 1.625.705 3.4 1.038 5.284 1.038Zm0-4.192c-1.626 0-3.141-.445-4.545-1.261a10.004 10.004 0 0 1-3.326-3.376 9.158 9.158 0 0 1-1.293-4.748 9.39 9.39 0 0 1 1.256-4.749c.85-1.447 1.921-2.56 3.289-3.376 1.404-.89 2.919-1.298 4.619-1.298 1.737 0 3.178.408 4.434 1.261 1.22.816 2.18 1.966 2.882 3.376.702 1.447 1.035 3.042 1.035 4.786 0 1.743-.333 3.301-1.035 4.748a8.25 8.25 0 0 1-2.882 3.376c-1.256.816-2.697 1.261-4.434 1.261Zm30.265 4.192c2.55 0 4.877-.742 6.947-2.188 1.995-1.41 3.51-3.154 4.545-5.38l.11-.26-4.397-1.038c-.776 1.41-1.81 2.486-3.03 3.339a7.813 7.813 0 0 1-4.175 1.187 7.859 7.859 0 0 1-3.954-1.039c-1.183-.705-2.143-1.595-2.882-2.745a9.222 9.222 0 0 1-1.405-3.636l-.037-.26h20.99a16.586 16.586 0 0 0-.629-5.935c-.591-1.818-1.441-3.413-2.587-4.823-1.182-1.41-2.586-2.522-4.175-3.301-1.626-.78-3.4-1.15-5.321-1.15-1.811 0-3.474.333-5.026 1.038a12.814 12.814 0 0 0-4.102 2.931 14.025 14.025 0 0 0-2.77 4.34c-.666 1.67-.999 3.414-.999 5.343 0 2.485.592 4.748 1.737 6.789 1.146 2.077 2.735 3.746 4.656 4.934 1.959 1.224 4.102 1.854 6.504 1.854Zm8.35-15.432h-16.738c.184-1.484.665-2.82 1.44-4.007a9.07 9.07 0 0 1 2.957-2.856c1.182-.742 2.513-1.076 3.99-1.076 1.442 0 2.735.37 3.955 1.113a8.834 8.834 0 0 1 2.993 2.856c.813 1.187 1.256 2.523 1.404 3.97ZM252.1 44.14v-15.1a6.95 6.95 0 0 1 .96-3.56c.629-1.076 1.479-1.93 2.55-2.597 1.072-.631 2.255-.928 3.548-.928.665 0 1.367.111 2.07.334L263 17.95a11.09 11.09 0 0 0-2.92-.408 9.74 9.74 0 0 0-4.507 1.075c-1.405.742-2.55 1.67-3.474 2.894v-3.228h-4.323v25.858h4.323Z" fill="#525862" fill-rule="nonzero" stroke="#525862" stroke-width=".552"/></g></svg>
