<svg width="160" height="210" xmlns="http://www.w3.org/2000/svg"><defs><filter id="a"><feColorMatrix in="SourceGraphic" values="0 0 0 0 1.000000 0 0 0 0 1.000000 0 0 0 0 1.000000 0 0 0 1.000000 0"/></filter></defs><g fill="none" fill-rule="evenodd"><g fill-rule="nonzero"><path d="M145 210H15c-8.3 0-15-6.7-15-15V15C0 6.7 6.7 0 15 0h95l50 50v145c0 8.3-6.7 15-15 15Z" fill="#86ABEB"/><path fill="#C4D4F1" d="M160 50h-50V0z"/><path fill="#718FC3" d="m110 50 50 50V50z"/></g><g filter="url(#a)"><g fill="#000" fill-rule="nonzero"><path d="M39 91.691h18.338v9.169H39zM48.169 100.86h18.338v9.169H48.169z"/><path d="M48.169 100.86h9.169v18.338h-9.169zM39 73.353h18.338v9.169H39zM48.169 82.522h18.338v9.169H48.169zM39 55.015h18.338v9.169H39zM48.169 64.184h18.338v9.169H48.169zM39 36.676h18.338v9.169H39zM48.169 45.846h18.338v9.169H48.169zM39 18.338h18.338v9.169H39zM48.169 27.507h18.338v9.169H48.169zM39 0h18.338v9.169H39zM48.169 9.169h18.338v9.169H48.169z"/><path d="M52.754 117.03c7.596 0 13.753 6.157 13.753 13.753v13.754a9.17 9.17 0 0 1-9.169 9.169H48.17a9.17 9.17 0 0 1-9.169-9.17v-13.753c0-7.596 6.158-13.754 13.754-13.754Zm0 9.169a4.585 4.585 0 0 0-4.585 4.584v9.17a4.585 4.585 0 1 0 9.17 0v-9.17a4.585 4.585 0 0 0-4.585-4.584Z"/></g></g></g></svg>
