<?xml version="1.0" encoding="UTF-8"?>
<svg width="160px" height="210px" viewBox="0 0 160 210" version="1.1" xmlns="http://www.w3.org/2000/svg" xmlns:xlink="http://www.w3.org/1999/xlink">
  <title>Group</title>
  <defs>
    <filter id="filter-1">
      <feColorMatrix in="SourceGraphic" type="matrix" values="0 0 0 0 1.000000 0 0 0 0 1.000000 0 0 0 0 1.000000 0 0 0 1.000000 0"></feColorMatrix>
    </filter>
  </defs>
  <g id="Page-1" stroke="none" stroke-width="1" fill="none" fill-rule="evenodd">
    <g id="Archive" transform="translate(-118.000000, -110.000000)">
      <g id="Group" transform="translate(118.000000, 110.000000)">
        <g id="google-slides" fill-rule="nonzero">
          <path d="M145,210 L15,210 C6.7,210 0,203.3 0,195 L0,15 C0,6.7 6.7,0 15,0 L110,0 L160,50 L160,195 C160,203.3 153.3,210 145,210 Z" id="Path" fill="#86ABEB"></path>
          <polygon id="Path" fill="#C4D4F1" points="160 50 110 50 110 0"></polygon>
          <polygon id="Path" fill="#718FC3" points="110 50 160 100 160 50"></polygon>
        </g>
        <g filter="url(#filter-1)" id="Group-2">
          <g transform="translate(39.000000, 0.000000)">
            <rect id="Rectangle-Copy-10" fill="#000000" fill-rule="nonzero" x="0" y="91.6911765" width="18.3382353" height="9.16911765"></rect>
            <rect id="Rectangle-Copy-9" fill="#000000" fill-rule="nonzero" x="9.16911765" y="100.860294" width="18.3382353" height="9.16911765"></rect>
            <rect id="Rectangle-Copy-11" fill="#000000" fill-rule="nonzero" x="9.16911765" y="100.860294" width="9.16911765" height="18.3382353"></rect>
            <rect id="Rectangle-Copy-8" fill="#000000" fill-rule="nonzero" x="0" y="73.3529412" width="18.3382353" height="9.16911765"></rect>
            <rect id="Rectangle-Copy-7" fill="#000000" fill-rule="nonzero" x="9.16911765" y="82.5220588" width="18.3382353" height="9.16911765"></rect>
            <rect id="Rectangle-Copy-6" fill="#000000" fill-rule="nonzero" x="0" y="55.0147059" width="18.3382353" height="9.16911765"></rect>
            <rect id="Rectangle-Copy-5" fill="#000000" fill-rule="nonzero" x="9.16911765" y="64.1838235" width="18.3382353" height="9.16911765"></rect>
            <rect id="Rectangle-Copy-4" fill="#000000" fill-rule="nonzero" x="0" y="36.6764706" width="18.3382353" height="9.16911765"></rect>
            <rect id="Rectangle-Copy-3" fill="#000000" fill-rule="nonzero" x="9.16911765" y="45.8455882" width="18.3382353" height="9.16911765"></rect>
            <rect id="Rectangle-Copy-2" fill="#000000" fill-rule="nonzero" x="0" y="18.3382353" width="18.3382353" height="9.16911765"></rect>
            <rect id="Rectangle-Copy" fill="#000000" fill-rule="nonzero" x="9.16911765" y="27.5073529" width="18.3382353" height="9.16911765"></rect>
            <rect id="Rectangle" fill="#000000" fill-rule="nonzero" x="0" y="0" width="18.3382353" height="9.16911765"></rect>
            <rect id="Rectangle" fill="#000000" fill-rule="nonzero" x="9.16911765" y="9.16911765" width="18.3382353" height="9.16911765"></rect>
            <path d="M13.7536765,117.029412 C21.3496222,117.029412 27.5073529,123.187142 27.5073529,130.783088 L27.5073529,144.536765 C27.5073529,149.600729 23.4021991,153.705882 18.3382353,153.705882 L9.16911765,153.705882 C4.1051538,153.705882 5.39108619e-14,149.600729 5.32907052e-14,144.536765 L5.32907052e-14,130.783088 C5.05841133e-14,123.187142 6.1577307,117.029412 13.7536765,117.029412 Z M13.7536765,126.198529 C11.2216945,126.198529 9.16911765,128.251106 9.16911765,130.783088 L9.16911765,130.783088 L9.16911765,139.952206 C9.16911765,142.484188 11.2216945,144.536765 13.7536765,144.536765 C16.2856584,144.536765 18.3382353,142.484188 18.3382353,139.952206 L18.3382353,139.952206 L18.3382353,130.783088 C18.3382353,128.251106 16.2856584,126.198529 13.7536765,126.198529 Z" id="Combined-Shape" fill="#000000" fill-rule="nonzero"></path>
          </g>
        </g>
      </g>
    </g>
  </g>
</svg>
