<svg width="160" height="210" xmlns="http://www.w3.org/2000/svg"><defs><filter id="a"><feColorMatrix in="SourceGraphic" values="0 0 0 0 1.000000 0 0 0 0 1.000000 0 0 0 0 1.000000 0 0 0 1.000000 0"/></filter></defs><g fill="none" fill-rule="evenodd"><g fill-rule="nonzero"><path d="M145 210H15c-8.3 0-15-6.7-15-15V15C0 6.7 6.7 0 15 0h95l50 50v145c0 8.3-6.7 15-15 15Z" fill="#0791FF"/><path fill="#B3DDFF" d="M160 50h-50V0z"/><path fill="#0A7CD9" d="m110 50 50 50V50z"/></g><g filter="url(#a)"><path d="M89.405 95.01c9.48 2.045 17.281 6.904 23.407 14.578 6.125 7.674 9.188 16.48 9.188 26.417 0 9.937-3.063 18.743-9.188 26.416-6.126 7.674-13.928 12.534-23.407 14.579v-9.649c6.854-2.045 12.431-5.918 16.734-11.618 4.302-5.7 6.454-12.278 6.454-19.733s-2.152-14.033-6.454-19.733c-4.303-5.7-9.88-9.573-16.734-11.618V95v.01Zm11.592 41c0 8.77-3.864 15.055-11.592 18.853v-37.712c3.208 1.609 5.942 4.24 8.204 7.895 2.261 3.655 3.392 7.309 3.392 10.963h-.004ZM38 121.977h18.591l23.407-23.46v74.979l-23.407-23.46H38v-28.064.005Z" fill="#000" fill-rule="nonzero"/></g></g></svg>
