<?xml version="1.0" encoding="UTF-8"?>
<svg width="160px" height="210px" viewBox="0 0 160 210" version="1.1" xmlns="http://www.w3.org/2000/svg" xmlns:xlink="http://www.w3.org/1999/xlink">
  <title>Group</title>
  <defs>
    <filter id="filter-1">
      <feColorMatrix in="SourceGraphic" type="matrix" values="0 0 0 0 1.000000 0 0 0 0 1.000000 0 0 0 0 1.000000 0 0 0 1.000000 0"></feColorMatrix>
    </filter>
  </defs>
  <g id="Page-1" stroke="none" stroke-width="1" fill="none" fill-rule="evenodd">
    <g id="Audio" transform="translate(-118.000000, -110.000000)">
      <g id="Group" transform="translate(118.000000, 110.000000)">
        <g id="google-slides" fill-rule="nonzero">
          <path d="M145,210 L15,210 C6.7,210 0,203.3 0,195 L0,15 C0,6.7 6.7,0 15,0 L110,0 L160,50 L160,195 C160,203.3 153.3,210 145,210 Z" id="Path" fill="#0791FF"></path>
          <polygon id="Path" fill="#B3DDFF" points="160 50 110 50 110 0"></polygon>
          <polygon id="Path" fill="#0A7CD9" points="110 50 160 100 160 50"></polygon>
        </g>
        <g filter="url(#filter-1)" id="volume_up">
          <g transform="translate(38.000000, 95.000000)">
            <path d="M51.4051442,0.00935432352 C60.8841731,2.05483307 68.6864063,6.91440414 74.8118438,14.5880675 C80.9372813,22.2617309 84,31.0672675 84,41.0046772 C84,50.9420869 80.9372813,59.7476234 74.8118438,67.4212868 C68.6864063,75.0949502 60.8841731,79.9545213 51.4051442,82 L51.4051442,72.3510153 C58.2585412,70.3055365 63.8364535,66.4328466 68.1388812,60.7329455 C72.4413088,55.0330443 74.5925226,48.4553958 74.5925226,41 C74.5925226,33.5446042 72.4413088,26.9669557 68.1388812,21.2670545 C63.8364535,15.5671534 58.2585412,11.6944635 51.4051442,9.64898471 L51.4051442,0 L51.4051442,0.00935432352 Z M62.9965002,41.0093543 C62.9965002,49.7805917 59.1327148,56.065138 51.4051442,59.8629934 L51.4051442,22.1510381 C54.6125215,23.7599817 57.3470363,26.3916648 59.6086884,30.0460872 C61.8703405,33.7005095 63.0011666,37.3549319 63.0011666,41.0093543 L62.9965002,41.0093543 Z M0,26.977869 L18.5909672,26.977869 L41.9976668,3.51722564 L41.9976668,78.4968058 L18.5909672,55.0361624 L0,55.0361624 L0,26.9731919 L0,26.977869 Z" id="Shape" fill="#000000" fill-rule="nonzero"></path>
          </g>
        </g>
      </g>
    </g>
  </g>
</svg>
