<svg width="160" height="210" xmlns="http://www.w3.org/2000/svg"><defs><filter id="a"><feColorMatrix in="SourceGraphic" values="0 0 0 0 1.000000 0 0 0 0 1.000000 0 0 0 0 1.000000 0 0 0 1.000000 0"/></filter></defs><g fill="none" fill-rule="evenodd"><g fill-rule="nonzero"><path d="M145 210H15c-8.3 0-15-6.7-15-15V15C0 6.7 6.7 0 15 0h95l50 50v145c0 8.3-6.7 15-15 15Z" fill="#D35230"/><path fill="#FF8464" d="M160 50h-50V0z"/><path fill="#B44223" d="m110 50 50 50V50z"/></g><g filter="url(#a)"><g fill="#000" fill-rule="nonzero"><path d="M121.659 94H38.333C33.737 94 30 97.723 30 102.3v45.65c0 4.577 3.737 8.3 8.333 8.3H75.83v8.3c0 1.959-1.613 3.967-4.425 5.524-3.242 1.788-7.591 2.776-12.237 2.776V177h41.664v-4.15c-4.663 0-9.012-.984-12.237-2.776-2.812-1.557-4.425-3.565-4.425-5.524v-8.3h37.497c4.596 0 8.333-3.723 8.333-8.3V102.3c0-4.577-3.737-8.3-8.333-8.3h-.008Zm-36.48 78.85H74.817c3.241-2.191 5.183-5.084 5.183-8.3 0 3.216 1.942 6.109 5.183 8.3h-.004ZM38.333 102.3h83.326v37.35H38.333V102.3c-.013 0 0 0 0 0Zm0 45.65v-4.15h83.326v4.15H38.333Z"/><path d="M67.986 136.7c.336.2.713.3 1.085.3.311 0 .634-.076.933-.212l24.857-12A1.993 1.993 0 0 0 96 123c0-.752-.44-1.452-1.14-1.788l-24.856-12a2.145 2.145 0 0 0-2.022.088A1.993 1.993 0 0 0 67 111v24c0 .688.377 1.336.982 1.7h.004Zm3.161-22.464L89.297 123l-18.15 8.764V114.236Z"/></g></g></g></svg>
