<?xml version="1.0" encoding="UTF-8"?>
<svg width="160px" height="210px" viewBox="0 0 160 210" version="1.1" xmlns="http://www.w3.org/2000/svg" xmlns:xlink="http://www.w3.org/1999/xlink">
  <title>Group</title>
  <defs>
    <filter id="filter-1">
      <feColorMatrix in="SourceGraphic" type="matrix" values="0 0 0 0 1.000000 0 0 0 0 1.000000 0 0 0 0 1.000000 0 0 0 1.000000 0"></feColorMatrix>
    </filter>
  </defs>
  <g id="Page-1" stroke="none" stroke-width="1" fill="none" fill-rule="evenodd">
    <g id="Slides" transform="translate(-118.000000, -110.000000)">
      <g id="Group" transform="translate(118.000000, 110.000000)">
        <g id="google-slides" fill-rule="nonzero">
          <path d="M145,210 L15,210 C6.7,210 0,203.3 0,195 L0,15 C0,6.7 6.7,0 15,0 L110,0 L160,50 L160,195 C160,203.3 153.3,210 145,210 Z" id="Path" fill="#D35230"></path>
          <polygon id="Path" fill="#FF8464" points="160 50 110 50 110 0"></polygon>
          <polygon id="Path" fill="#B44223" points="110 50 160 100 160 50"></polygon>
        </g>
        <g filter="url(#filter-1)" id="widescreen-play">
          <g transform="translate(30.000000, 93.500000)">
            <path d="M91.6590284,0.5 L8.33263895,0.5 C3.73718857,0.5 0,4.22255 0,8.8 L0,54.45 C0,59.02745 3.73718857,62.75 8.33263895,62.75 L45.8295142,62.75 L45.8295142,71.05 C45.8295142,73.0088 44.2171486,75.0174 41.4048829,76.57365 C38.1634864,78.3623 33.8138488,79.35 29.1684026,79.35 L29.1684026,83.5 L70.8315974,83.5 L70.8315974,79.35 C66.1694859,79.35 61.8198483,78.36645 58.5951171,76.57365 C55.7828514,75.0174 54.1704858,73.0088 54.1704858,71.05 L54.1704858,62.75 L91.6673611,62.75 C96.2628114,62.75 100,59.02745 100,54.45 L100,8.8 C100,4.22255 96.2628114,0.5 91.6673611,0.5 L91.6590284,0.5 Z M55.1787351,79.35 L44.8170986,79.35 C48.0584951,77.1588 50,74.26625 50,71.05 C50,74.26625 51.9415049,77.1588 55.1829014,79.35 L55.1787351,79.35 Z M8.33263895,8.8 L91.6590284,8.8 L91.6590284,46.15 L8.33263895,46.15 L8.33263895,8.8 C8.32013999,8.8 8.33263895,8.8 8.33263895,8.8 Z M8.33263895,54.45 L8.33263895,50.3 L91.6590284,50.3 L91.6590284,54.45 L8.33263895,54.45 Z" id="Shape" fill="#000000" fill-rule="nonzero"></path>
            <path d="M37.986,43.199996 C38.3215714,43.3999987 38.6985714,43.5 39.0714286,43.5 C39.3821429,43.5 39.7052857,43.423999 40.0035714,43.2879972 L64.8607143,31.2878388 C65.5608571,30.9518344 66,30.2518252 66,29.4998152 C66,28.7478053 65.5608571,28.0477961 64.8607143,27.7117916 L40.0035714,15.7116333 C39.3572857,15.3996291 38.6074286,15.4356296 37.9818571,15.7996344 C37.3728571,16.1636392 37,16.8116478 37,17.4996569 L37,41.4999736 C37,42.1879827 37.377,42.8359912 37.9818571,43.199996 L37.986,43.199996 Z M41.147,20.7356996 L59.2968571,29.4998152 L41.147,38.2639309 L41.147,20.7396996 L41.147,20.7356996 Z" id="Shape" fill="#000000" fill-rule="nonzero"></path>
          </g>
        </g>
      </g>
    </g>
  </g>
</svg>
