<svg xmlns="http://www.w3.org/2000/svg" viewBox="0 0 160 210" style="enable-background:new 0 0 160 210" xml:space="preserve"><path d="M145 210H15c-8.3 0-15-6.7-15-15V15C0 6.7 6.7 0 15 0h95l50 50v145c0 8.3-6.7 15-15 15z" style="fill:#43a047"/><path d="M160 50h-50V0l50 50z" style="fill:#c8e6c9"/><path d="m110 50 50 50V50h-50z" style="fill:#2e7d32"/><path d="M115 100H35v70h90v-70h-10zm-70 10h20v10H45v-10zm0 20h20v10H45v-10zm0 20h20v10H45v-10zm70 10H75v-10h40v10zm0-20H75v-10h40v10zm0-20H75v-10h40v10z" style="fill:#e8f5e9"/></svg>
