<?xml version="1.0" encoding="UTF-8"?>
<svg width="160px" height="210px" viewBox="0 0 160 210" version="1.1" xmlns="http://www.w3.org/2000/svg" xmlns:xlink="http://www.w3.org/1999/xlink">
  <title>Group</title>
  <defs>
    <filter id="filter-1">
      <feColorMatrix in="SourceGraphic" type="matrix" values="0 0 0 0 1.000000 0 0 0 0 1.000000 0 0 0 0 1.000000 0 0 0 1.000000 0"></feColorMatrix>
    </filter>
  </defs>
  <g id="Page-1" stroke="none" stroke-width="1" fill="none" fill-rule="evenodd">
    <g id="Video" transform="translate(-118.000000, -110.000000)">
      <g id="Group" transform="translate(118.000000, 110.000000)">
        <g id="google-slides" fill-rule="nonzero">
          <path d="M145,210 L15,210 C6.7,210 0,203.3 0,195 L0,15 C0,6.7 6.7,0 15,0 L110,0 L160,50 L160,195 C160,203.3 153.3,210 145,210 Z" id="Path" fill="#8C50E7"></path>
          <polygon id="Path" fill="#B380FF" points="160 50 110 50 110 0"></polygon>
          <polygon id="Path" fill="#7C3FD8" points="110 50 160 100 160 50"></polygon>
        </g>
        <g filter="url(#filter-1)" id="film1">
          <g transform="translate(31.000000, 104.000000)">
            <path d="M95.9583333,0 L2.04166667,0 C0.91875,0 0,0.9140625 0,2.03125 L0,62.96875 C0,64.0859375 0.91875,65 2.04166667,65 L95.9583333,65 C97.08125,65 98,64.0859375 98,62.96875 L98,2.03125 C98,0.9140625 97.08125,0 95.9583333,0 Z M16.3333333,4.0625 L16.3333333,12.1875 L8.16666667,12.1875 L8.16666667,4.0625 L16.3333333,4.0625 Z M8.16666667,40.625 L16.3333333,40.625 L16.3333333,48.75 L8.16666667,48.75 L8.16666667,40.625 Z M8.16666667,36.5625 L8.16666667,28.4375 L16.3333333,28.4375 L16.3333333,36.5625 L8.16666667,36.5625 Z M8.16666667,24.375 L8.16666667,16.25 L16.3333333,16.25 L16.3333333,24.375 L8.16666667,24.375 Z M8.16666667,60.9375 L8.16666667,52.8125 L16.3333333,52.8125 L16.3333333,60.9375 L8.16666667,60.9375 Z M73.5,56.875 L24.5,56.875 L24.5,8.125 L73.5,8.125 L73.5,56.875 Z M89.8333333,48.75 L81.6666667,48.75 L81.6666667,40.625 L89.8333333,40.625 L89.8333333,48.75 Z M89.8333333,36.5625 L81.6666667,36.5625 L81.6666667,28.4375 L89.8333333,28.4375 L89.8333333,36.5625 Z M89.8333333,24.375 L81.6666667,24.375 L81.6666667,16.25 L89.8333333,16.25 L89.8333333,24.375 Z M81.6666667,60.9375 L81.6666667,52.8125 L89.8333333,52.8125 L89.8333333,60.9375 L81.6666667,60.9375 Z M89.8333333,12.1875 L81.6666667,12.1875 L81.6666667,4.0625 L89.8333333,4.0625 L89.8333333,12.1875 Z" id="Shape" fill="#000000" fill-rule="nonzero"></path>
          </g>
        </g>
      </g>
    </g>
  </g>
</svg>
